<svg width="141" height="22" viewBox="0 0 141 22" fill="none" xmlns="http://www.w3.org/2000/svg">
<path d="M69.8223 21.0623V0.399902H72.2484V12.0242C72.6395 11.3132 73.2171 10.7356 73.9814 10.2912C74.7457 9.82908 75.6433 9.59801 76.6742 9.59801C77.7051 9.59801 78.5494 9.90906 79.207 10.5312C79.8824 11.1355 80.2379 11.9264 80.2734 12.904V21.0623H77.7673V13.7572C77.7318 13.1706 77.5451 12.6907 77.2074 12.3175C76.8875 11.9442 76.3809 11.7487 75.6877 11.7309C75.0479 11.7309 74.4702 11.9175 73.9547 12.2908C73.4571 12.6463 73.0572 13.1351 72.755 13.7572C72.4528 14.3792 72.3018 15.0902 72.3018 15.89V21.0623H69.8223Z" fill="black"/>
<path d="M89.6778 21.3289C88.4336 21.3289 87.3494 21.0801 86.4251 20.5824C85.5186 20.067 84.8165 19.3649 84.3189 18.4762C83.839 17.5875 83.599 16.5832 83.599 15.4635C83.599 14.3793 83.8656 13.3928 84.3989 12.5041C84.9498 11.5976 85.6875 10.8866 86.6117 10.3712C87.5538 9.83796 88.5935 9.57135 89.7311 9.57135C91.1886 9.57135 92.3972 9.99793 93.357 10.8511C94.3168 11.7042 94.9745 12.8773 95.3299 14.3704L86.5851 17.4364C86.8872 17.9874 87.3138 18.4229 87.8648 18.7428C88.4158 19.045 89.0379 19.196 89.7311 19.196C90.2288 19.196 90.6998 19.1072 91.1441 18.9294C91.5885 18.7517 92.0151 18.5206 92.4239 18.2362L93.5703 20.0759C93.0015 20.4491 92.3705 20.7513 91.6774 20.9823C91.0019 21.2134 90.3354 21.3289 89.6778 21.3289ZM86.0518 15.3302C86.0341 15.5435 86.043 15.7479 86.0785 15.9434L92.5039 13.5705C92.255 13.0373 91.8906 12.5663 91.4107 12.1575C90.9486 11.7487 90.3265 11.5443 89.5445 11.5443C88.5313 11.5443 87.696 11.8998 87.0383 12.6107C86.3807 13.3217 86.0518 14.2282 86.0518 15.3302Z" fill="black"/>
<path d="M103.023 21.3289C101.974 21.3289 101.023 21.1068 100.17 20.6624C99.3344 20.218 98.6679 19.5693 98.1702 18.7161C97.6903 17.8452 97.4503 16.7876 97.4503 15.5435C97.4503 14.2993 97.6992 13.2328 98.1968 12.3441C98.7123 11.4554 99.3966 10.7711 100.25 10.2912C101.121 9.8113 102.072 9.57135 103.103 9.57135C104.098 9.57135 104.942 9.78464 105.635 10.2112C106.329 10.6378 106.871 11.1532 107.262 11.7576L107.448 10.0246H109.741V21.0623H107.262V19.2494C107.048 19.5337 106.737 19.8359 106.329 20.1558C105.937 20.4758 105.458 20.7513 104.889 20.9823C104.338 21.2134 103.716 21.3289 103.023 21.3289ZM103.689 19.276C104.596 19.276 105.369 19.0272 106.009 18.5295C106.648 18.0141 107.066 17.3209 107.262 16.4499V14.2637C107.048 13.4994 106.604 12.8685 105.929 12.3708C105.253 11.8731 104.48 11.6243 103.609 11.6243C102.934 11.6243 102.32 11.7842 101.769 12.1042C101.218 12.4241 100.774 12.8684 100.436 13.4372C100.116 14.006 99.9565 14.6636 99.9565 15.4101C99.9565 16.1389 100.125 16.7965 100.463 17.3831C100.801 17.9518 101.254 18.414 101.823 18.7695C102.392 19.1072 103.014 19.276 103.689 19.276Z" fill="black"/>
<path d="M114.058 0.399902H116.537V21.0623H114.058V0.399902Z" fill="black"/>
<path d="M121.92 5.17225H124.426V10.0513H127.439V12.0242H124.426V21.0623H121.92V12.0242H119.894V10.0513H121.92V5.17225Z" fill="black"/>
<path d="M130.461 21.0623V0.399902H132.887V12.0242C133.278 11.3132 133.856 10.7356 134.62 10.2912C135.384 9.82908 136.282 9.59801 137.313 9.59801C138.344 9.59801 139.188 9.90906 139.846 10.5312C140.521 11.1355 140.876 11.9264 140.912 12.904V21.0623H138.406V13.7572C138.37 13.1706 138.184 12.6907 137.846 12.3175C137.526 11.9442 137.019 11.7487 136.326 11.7309C135.686 11.7309 135.109 11.9175 134.593 12.2908C134.096 12.6463 133.696 13.1351 133.394 13.7572C133.091 14.3792 132.94 15.0902 132.94 15.89V21.0623H130.461Z" fill="black"/>
<path d="M7.55062 21.3821C6.12869 21.3821 4.92005 21.1155 3.9247 20.5823C2.94712 20.0491 2.20061 19.3114 1.68516 18.3694C1.16971 17.4274 0.911987 16.3432 0.911987 15.1167C0.911987 13.9437 1.21415 12.8861 1.81847 11.9441C2.42279 11.002 3.23151 10.2555 4.24464 9.70453C5.25776 9.13575 6.38642 8.85137 7.63061 8.85137C9.30137 8.85137 10.67 9.34016 11.7364 10.3177C12.8207 11.2775 13.5227 12.6728 13.8427 14.5035L5.31108 17.223C5.87985 17.8806 6.65303 18.2094 7.63061 18.2094C8.03941 18.2094 8.43044 18.1383 8.8037 17.9962C9.19473 17.854 9.57687 17.6673 9.95013 17.4363L11.6031 20.209C10.981 20.5645 10.3056 20.8489 9.57687 21.0622C8.86591 21.2755 8.19049 21.3821 7.55062 21.3821ZM4.59123 14.9035C4.59123 14.9923 4.59123 15.0723 4.59123 15.1434L9.71018 13.4104C9.55021 12.9661 9.29249 12.5839 8.937 12.264C8.58152 11.9263 8.0483 11.7574 7.33733 11.7574C6.50195 11.7574 5.83542 12.0418 5.33774 12.6106C4.84007 13.1794 4.59123 13.9437 4.59123 14.9035Z" fill="black"/>
<path d="M19.9143 9.41125L20.2076 12.0774C20.5453 11.402 21.0074 10.8243 21.594 10.3444C22.1805 9.84672 22.7582 9.47346 23.327 9.22462C23.8957 8.95801 24.3312 8.82471 24.6334 8.82471L24.4467 12.5573C23.5758 12.4506 22.8293 12.5928 22.2072 12.9839C21.5851 13.3749 21.1052 13.8903 20.7675 14.5302C20.4298 15.1701 20.2609 15.8277 20.2609 16.5031V21.0622H16.555V9.41125H19.9143Z" fill="black"/>
<path d="M32.7017 21.3821C31.2798 21.3821 30.0711 21.1155 29.0758 20.5823C28.0982 20.0491 27.3517 19.3114 26.8362 18.3694C26.3208 17.4274 26.0631 16.3432 26.0631 15.1167C26.0631 13.9437 26.3652 12.8861 26.9695 11.9441C27.5739 11.002 28.3826 10.2555 29.3957 9.70453C30.4088 9.13575 31.5375 8.85137 32.7817 8.85137C34.4524 8.85137 35.8211 9.34016 36.8875 10.3177C37.9717 11.2775 38.6738 12.6728 38.9937 14.5035L30.4622 17.223C31.0309 17.8806 31.8041 18.2094 32.7817 18.2094C33.1905 18.2094 33.5815 18.1383 33.9548 17.9962C34.3458 17.854 34.7279 17.6673 35.1012 17.4363L36.7542 20.209C36.1321 20.5645 35.4567 20.8489 34.7279 21.0622C34.017 21.2755 33.3416 21.3821 32.7017 21.3821ZM29.7423 14.9035C29.7423 14.9923 29.7423 15.0723 29.7423 15.1434L34.8613 13.4104C34.7013 12.9661 34.4436 12.5839 34.0881 12.264C33.7326 11.9263 33.1994 11.7574 32.4884 11.7574C31.653 11.7574 30.9865 12.0418 30.4888 12.6106C29.9911 13.1794 29.7423 13.9437 29.7423 14.9035Z" fill="black"/>
<path d="M58.7756 14.9525C58.7756 17.0999 57.0349 18.8406 54.8875 18.8406C52.7402 18.8406 50.9995 17.0999 50.9995 14.9525C50.9995 12.8052 52.7402 11.0645 54.8875 11.0645C57.0349 11.0645 58.7756 12.8052 58.7756 14.9525Z" fill="black"/>
</svg>
